<svg xmlns="http://www.w3.org/2000/svg" width="14.595" height="16.68" viewBox="0 0 14.595 16.68">
  <path id="Icon_awesome-birthday-cake" data-name="Icon awesome-birthday-cake" d="M14.6,12.51c-.913,0-1.018-1.043-2.427-1.043S10.643,12.51,9.733,12.51,8.708,11.468,7.3,11.468,5.759,12.51,4.871,12.51c-.917,0-1.017-1.043-2.435-1.043S.915,12.51,0,12.51V9.9A1.564,1.564,0,0,1,1.564,8.34h.521V3.649H4.17V8.34H6.255V3.649H8.34V8.34h2.085V3.649H12.51V8.34h.521A1.564,1.564,0,0,1,14.6,9.9Zm0,4.17H0V13.553c1.412,0,1.524-1.043,2.435-1.043s1.018,1.043,2.435,1.043c1.4,0,1.538-1.043,2.427-1.043.917,0,1.016,1.043,2.435,1.043s1.524-1.043,2.435-1.043c.9,0,1.018,1.043,2.427,1.043ZM3.128,3.128A1.039,1.039,0,0,1,2.085,2.085c0-1.01,1.043-.749,1.043-2.085C3.519,0,4.17.961,4.17,1.824S3.706,3.128,3.128,3.128Zm4.17,0A1.039,1.039,0,0,1,6.255,2.085C6.255,1.075,7.3,1.336,7.3,0,7.689,0,8.34.961,8.34,1.824S7.876,3.128,7.3,3.128Zm4.17,0a1.039,1.039,0,0,1-1.043-1.043c0-1.01,1.043-.749,1.043-2.085.391,0,1.043.961,1.043,1.824S12.046,3.128,11.468,3.128Z" fill="#8585e2"/>
</svg>
