<svg xmlns="http://www.w3.org/2000/svg" width="23.272" height="21.482" viewBox="0 0 23.272 21.482">
  <g id="Icon_ionic-md-chatboxes" data-name="Icon ionic-md-chatboxes" transform="translate(-3.375 -4.5)">
    <path id="Path_395" data-name="Path 395" d="M22.594,4.5H3.912a.538.538,0,0,0-.537.456V16.94a.561.561,0,0,0,.537.482H7.123V22.4l5.042-4.973H22.594a.452.452,0,0,0,.417-.482V4.956A.428.428,0,0,0,22.594,4.5Z" transform="translate(0)" fill="#c6c6c6"/>
    <path id="Path_396" data-name="Path 396" d="M28.107,8.93H26.295v9.318c0,.894-.387,1.479-1.407,1.479H14.776L12.6,21.908h7.255L24.9,26.887V21.908h3.211a.461.461,0,0,0,.425-.486V9.439A.484.484,0,0,0,28.107,8.93Z" transform="translate(-1.885 -0.905)" fill="#c6c6c6"/>
  </g>
</svg>
