<svg xmlns="http://www.w3.org/2000/svg" width="12.195" height="13.937" viewBox="0 0 12.195 13.937">
  <path id="Icon_awesome-trash-alt" data-name="Icon awesome-trash-alt" d="M.871,12.63a1.307,1.307,0,0,0,1.307,1.307h7.84a1.307,1.307,0,0,0,1.307-1.307V3.484H.871Zm7.4-6.968a.436.436,0,1,1,.871,0v6.1a.436.436,0,1,1-.871,0Zm-2.613,0a.436.436,0,0,1,.871,0v6.1a.436.436,0,1,1-.871,0Zm-2.613,0a.436.436,0,0,1,.871,0v6.1a.436.436,0,1,1-.871,0ZM11.759.871H8.493L8.237.362A.653.653,0,0,0,7.652,0H4.54a.646.646,0,0,0-.583.362L3.7.871H.436A.436.436,0,0,0,0,1.307v.871a.436.436,0,0,0,.436.436H11.759a.436.436,0,0,0,.436-.436V1.307A.436.436,0,0,0,11.759.871Z" fill="#e20000"/>
</svg>
