<svg xmlns="http://www.w3.org/2000/svg" width="30" height="30" viewBox="0 0 30 30">
  <g id="Group_59" data-name="Group 59" transform="translate(-39 -632)">
    <circle id="Ellipse_42" data-name="Ellipse 42" cx="15" cy="15" r="15" transform="translate(39 632)" fill="#28a064" opacity="0.766"/>
    <path id="Icon_metro-money" data-name="Icon metro-money" d="M15.436,13.266c-1.965-.511-2.6-1.035-2.6-1.857,0-.944.87-1.606,2.337-1.606,1.541,0,2.112.736,2.164,1.818h1.913a3.446,3.446,0,0,0-2.779-3.3v-1.9h-2.6V8.3c-1.679.368-3.03,1.45-3.03,3.125,0,2,1.658,3,4.069,3.575,2.169.519,2.6,1.277,2.6,2.091,0,.593-.42,1.545-2.337,1.545-1.783,0-2.489-.8-2.58-1.818H10.688a3.635,3.635,0,0,0,3.19,3.316v1.879h2.6V20.148c1.684-.325,3.03-1.3,3.03-3.078,0-2.45-2.1-3.29-4.069-3.8Z" transform="translate(38.904 632.573)" fill="#fff"/>
  </g>
</svg>
