<svg xmlns="http://www.w3.org/2000/svg" width="21.482" height="21.482" viewBox="0 0 21.482 21.482">
  <path id="Icon_metro-earth" data-name="Icon metro-earth" d="M13.312,1.928A10.741,10.741,0,1,0,24.052,12.669,10.741,10.741,0,0,0,13.312,1.928Zm0,20.139A9.367,9.367,0,0,1,9.594,21.3l4.891-5.5a.671.671,0,0,0,.17-.446V13.34a.671.671,0,0,0-.671-.671c-2.37,0-4.871-2.464-4.9-2.489a.671.671,0,0,0-.475-.2H5.927a.671.671,0,0,0-.671.671v4.028a.671.671,0,0,0,.371.6L7.941,16.44v3.942A9.4,9.4,0,0,1,4.818,8.641H7.27a.671.671,0,0,0,.475-.2L10.43,5.759a.671.671,0,0,0,.2-.475V3.661a9.425,9.425,0,0,1,6.8.558c-.087.073-.172.15-.253.232a4.028,4.028,0,0,0,2.845,6.876q.1,0,.2,0a15.764,15.764,0,0,1-.176,7.811.669.669,0,0,0-.018.11,9.369,9.369,0,0,1-6.716,2.825Z" transform="translate(-2.571 -1.928)" fill="#c6c6c6"/>
</svg>
