<svg xmlns="http://www.w3.org/2000/svg" width="30" height="30" viewBox="0 0 30 30">
  <g id="Group_61" data-name="Group 61" transform="translate(-38 -763)">
    <circle id="Ellipse_44" data-name="Ellipse 44" cx="15" cy="15" r="15" transform="translate(38 763)" fill="#f93131"/>
    <path id="Icon_metro-file-text" data-name="Icon metro-file-text" d="M15.6,4.908a11.8,11.8,0,0,0-1.134-1.3,11.8,11.8,0,0,0-1.3-1.134,2.075,2.075,0,0,0-1.183-.549H5.539A1.042,1.042,0,0,0,4.5,2.969V14.207a1.042,1.042,0,0,0,1.041,1.041h9.573a1.042,1.042,0,0,0,1.041-1.041V6.09A2.074,2.074,0,0,0,15.6,4.908ZM13.882,4.2a11.353,11.353,0,0,1,.944,1.058h-2v-2a11.342,11.342,0,0,1,1.058.944Zm1.439,10.007a.211.211,0,0,1-.208.208H5.539a.211.211,0,0,1-.208-.208V2.969a.211.211,0,0,1,.208-.208h6.452V5.674a.416.416,0,0,0,.416.416h2.914ZM13.24,12.75H7.412a.416.416,0,0,1,0-.832H13.24a.416.416,0,0,1,0,.832Zm0-1.665H7.412a.416.416,0,0,1,0-.832H13.24a.416.416,0,0,1,0,.832Zm0-1.665H7.412a.416.416,0,0,1,0-.832H13.24a.416.416,0,0,1,0,.832Z" transform="translate(42.674 768.572)" fill="#fff" stroke="#fff" stroke-width="0.2"/>
  </g>
</svg>
