<svg xmlns="http://www.w3.org/2000/svg" width="25.703" height="20" viewBox="0 0 25.703 20">
  <g id="Group_61" data-name="Group 61" transform="translate(-365.297 -68)">
    <g id="Group_64" data-name="Group 64">
      <g id="Group_63" data-name="Group 63">
        <g id="Group_62" data-name="Group 62">
          <g id="Group_60" data-name="Group 60">
            <g id="Group_23" data-name="Group 23" transform="translate(476.611 -96.016) rotate(90)">
              <path id="Path_398" data-name="Path 398" d="M247.158,101.242a2.613,2.613,0,1,1,3.228-3.034,2.553,2.553,0,0,1-1.474,2.856.548.548,0,0,0-.4.613c.013,2.9.009,5.8.01,8.7,0,.071,0,.142,0,.212a.679.679,0,0,1-.677.716.67.67,0,0,1-.681-.71c-.011-.82-.006-1.641-.006-2.462q0-3.226,0-6.451Zm.662-1.277a1.253,1.253,0,0,0,1.257-1.226,1.242,1.242,0,0,0-2.483-.033A1.258,1.258,0,0,0,247.82,99.964Z" transform="translate(-75.821)"/>
              <path id="Path_399" data-name="Path 399" d="M165.924,108.8c0-.664.015-1.329-.012-1.992a.538.538,0,0,0-.264-.388,2.509,2.509,0,0,1-1.632-2.409,2.437,2.437,0,0,1,1.626-2.4c.254-.105.286-.253.285-.482-.006-1.3,0-2.6,0-3.9a.717.717,0,0,1,.418-.761.68.68,0,0,1,.939.7c.017.89.005,1.781.006,2.671,0,.17.012.34,0,.509a1.317,1.317,0,0,0,.771,1.561,2.226,2.226,0,0,1,1.122,2.385,2.437,2.437,0,0,1-1.536,2.074.507.507,0,0,0-.359.562c.011,1.272,0,2.544.005,3.817a.761.761,0,0,1-.395.782.667.667,0,0,1-.961-.646c-.018-.692,0-1.385,0-2.078ZM167.838,104a1.233,1.233,0,0,0-1.242-1.235,1.244,1.244,0,0,0,.02,2.488A1.233,1.233,0,0,0,167.838,104Z" transform="translate(0 -0.285)"/>
              <path id="Path_400" data-name="Path 400" d="M330.231,100.442c0,1.032.008,2.064-.006,3.1a.455.455,0,0,0,.326.5,2.576,2.576,0,0,1-.01,4.763.447.447,0,0,0-.316.506c.015.551.012,1.1,0,1.653a.662.662,0,0,1-.645.74.671.671,0,0,1-.707-.727c-.017-.565-.017-1.131,0-1.7a.423.423,0,0,0-.3-.47,2.574,2.574,0,0,1-.01-4.759.452.452,0,0,0,.316-.5c-.009-1.979-.007-3.957-.007-5.936a3.9,3.9,0,0,1,.01-.424.663.663,0,0,1,.7-.651.64.64,0,0,1,.651.687c.016,1,.009,2.007.011,3.01,0,.071,0,.141,0,.212Zm-1.907,5.982a1.236,1.236,0,0,0,1.236,1.24,1.249,1.249,0,0,0,1.232-1.249,1.234,1.234,0,1,0-2.468.009Z" transform="translate(-152.125 -0.395)"/>
            </g>
            <circle id="Ellipse_36" data-name="Ellipse 36" cx="6.5" cy="6.5" r="6.5" transform="translate(378 75)" fill="#87bde5"/>
          </g>
          <g id="Group_65" data-name="Group 65">
            <text id="_2" data-name="2" transform="translate(382 84)" fill="#fff" font-size="8" font-family="SegoeUI, Segoe UI" letter-spacing="0.005em"><tspan x="0" y="0">2</tspan></text>
          </g>
        </g>
      </g>
    </g>
  </g>
</svg>
