<svg xmlns="http://www.w3.org/2000/svg" width="15.18" height="15.964" viewBox="0 0 15.18 15.964">
  <g id="Group_23" data-name="Group 23" transform="translate(111.28 -164.016) rotate(90)">
    <path id="Path_398" data-name="Path 398" d="M247.154,101.23a2.607,2.607,0,1,1,3.221-3.027,2.547,2.547,0,0,1-1.471,2.85.547.547,0,0,0-.4.612c.013,2.894.009,5.788.009,8.681,0,.071,0,.141,0,.212a.678.678,0,0,1-.675.714.669.669,0,0,1-.679-.709c-.011-.819-.006-1.637-.006-2.456q0-3.218,0-6.437Zm.661-1.275a1.25,1.25,0,0,0,1.254-1.224,1.239,1.239,0,0,0-2.478-.033A1.255,1.255,0,0,0,247.814,99.955Z" transform="translate(-75.833 0)"/>
    <path id="Path_399" data-name="Path 399" d="M165.92,108.775c0-.663.015-1.326-.012-1.988a.537.537,0,0,0-.263-.388,2.5,2.5,0,0,1-1.628-2.4,2.432,2.432,0,0,1,1.623-2.394c.253-.105.285-.252.284-.481-.006-1.3,0-2.6,0-3.893a.716.716,0,0,1,.417-.76.678.678,0,0,1,.937.7c.017.888.005,1.777.006,2.665,0,.169.012.34,0,.508a1.315,1.315,0,0,0,.769,1.557,2.221,2.221,0,0,1,1.12,2.38,2.432,2.432,0,0,1-1.533,2.07.506.506,0,0,0-.358.561c.011,1.269,0,2.539.005,3.808a.76.76,0,0,1-.394.78.666.666,0,0,1-.959-.645c-.018-.691,0-1.382,0-2.073Zm1.91-4.8a1.23,1.23,0,0,0-1.239-1.232,1.241,1.241,0,0,0,.02,2.483A1.23,1.23,0,0,0,167.83,103.979Z" transform="translate(0 -0.285)"/>
    <path id="Path_400" data-name="Path 400" d="M330.223,100.433c0,1.029.008,2.059-.006,3.088a.454.454,0,0,0,.326.5,2.57,2.57,0,0,1-.01,4.752.446.446,0,0,0-.315.505c.015.55.012,1.1,0,1.65a.661.661,0,0,1-.644.738.669.669,0,0,1-.705-.726c-.017-.564-.017-1.128,0-1.692a.422.422,0,0,0-.3-.469,2.569,2.569,0,0,1-.01-4.749.451.451,0,0,0,.315-.5c-.009-1.974-.007-3.948-.007-5.923a3.9,3.9,0,0,1,.01-.423.661.661,0,0,1,.694-.649.638.638,0,0,1,.65.686c.015,1,.009,2,.011,3,0,.07,0,.141,0,.212Zm-1.9,5.969a1.233,1.233,0,0,0,1.233,1.237,1.246,1.246,0,0,0,1.229-1.246,1.231,1.231,0,1,0-2.462.009Z" transform="translate(-152.149 -0.396)"/>
  </g>
</svg>
