<svg xmlns="http://www.w3.org/2000/svg" width="18.78" height="24.648" viewBox="0 0 18.78 24.648">
  <path id="Icon_material-lock-open" data-name="Icon material-lock-open" d="M15.39,20.28a2.347,2.347,0,1,0-2.347-2.347A2.354,2.354,0,0,0,15.39,20.28ZM22.432,9.716H21.258V7.369a5.869,5.869,0,1,0-11.737,0h2.23a3.639,3.639,0,1,1,7.277,0V9.716H8.347A2.354,2.354,0,0,0,6,12.064V23.8a2.354,2.354,0,0,0,2.347,2.347H22.432A2.354,2.354,0,0,0,24.78,23.8V12.064A2.354,2.354,0,0,0,22.432,9.716Zm0,14.085H8.347V12.064H22.432Z" transform="translate(-6 -1.5)" fill="#69acdf"/>
</svg>
