<svg xmlns="http://www.w3.org/2000/svg" width="22" height="14" viewBox="0 0 22 14">
  <path id="Icon_material-people-outline" data-name="Icon material-people-outline" d="M17,15.5a11.987,11.987,0,0,0-4.5,1,11.8,11.8,0,0,0-4.5-1c-2.17,0-6.5,1.08-6.5,3.25V21.5h22V18.75C23.5,16.58,19.17,15.5,17,15.5ZM13,20H3V18.75C3,18.21,5.56,17,8,17s5,1.21,5,1.75Zm9,0H14.5V18.75a1.819,1.819,0,0,0-.52-1.22A9.647,9.647,0,0,1,17,17c2.44,0,5,1.21,5,1.75ZM8,14.5A3.5,3.5,0,1,0,4.5,11,3.5,3.5,0,0,0,8,14.5ZM8,9a2,2,0,1,1-2,2A2.006,2.006,0,0,1,8,9Zm9,5.5A3.5,3.5,0,1,0,13.5,11,3.5,3.5,0,0,0,17,14.5ZM17,9a2,2,0,1,1-2,2A2.006,2.006,0,0,1,17,9Z" transform="translate(-1.5 -7.5)"/>
</svg>
