<svg xmlns="http://www.w3.org/2000/svg" width="130" height="130" viewBox="0 0 130 130">
  <g id="Group_59" data-name="Group 59" transform="translate(-149 -160)">
    <circle id="Ellipse_41" data-name="Ellipse 41" cx="65" cy="65" r="65" transform="translate(149 160)" fill="#bebebe" opacity="0.652"/>
    <path id="Icon_awesome-user-alt" data-name="Icon awesome-user-alt" d="M32.623,36.7a18.35,18.35,0,1,0-18.35-18.35A18.355,18.355,0,0,0,32.623,36.7Zm16.311,4.078H41.913a22.183,22.183,0,0,1-18.58,0H16.311A16.31,16.31,0,0,0,0,57.09v2.039a6.118,6.118,0,0,0,6.117,6.117H59.129a6.118,6.118,0,0,0,6.117-6.117V57.09A16.31,16.31,0,0,0,48.934,40.778Z" transform="translate(181.377 189.996)" opacity="0.179"/>
  </g>
</svg>
