<svg xmlns="http://www.w3.org/2000/svg" width="240.405" height="295.855" viewBox="0 0 240.405 295.855">
  <g id="Group_66" data-name="Group 66" transform="translate(-93.798 -188.598)">
    <g id="Group_45" data-name="Group 45" transform="translate(93.798 188.598)">
      <path id="Path_418" data-name="Path 418" d="M152.974,440.093c-8.611-1.457-19.09-7.518-16.847-15.849,1.113-4.132,5.383-6.806,9.811-8.535,6.125-2.392,13.1-3.293,19.823-3.521a186.5,186.5,0,0,1,23.195,1.1c7.6.691,15.2,1.311,22.827,1.689a465.656,465.656,0,0,0,89.095-4.145q10.806-1.562,21.483-3.666c6.745-1.244,13.339-2.788,19.733-4.621,8.462-2.545,22.224-7.5,21.1-16.673-.595-4.864-5.167-8.749-9.778-11.456-5.576-3.273-12.028-5.426-18.347-7.517q-44.09-14.589-88.266-29c-6.867-2.256-13.779-4.452-20.443-7.1-6.239-2.475-12.449-5.351-17.471-9.327-4.386-3.473-8.3-8.135-8.166-13.346.115-4.322,3.254-7.99,7.1-10.73,9.518-6.786,22.983-9.538,35.152-10.979,15.119-1.791,30.457-1.781,45.585-3.51,12.216-1.4,25.268-4.091,35.2-10.407,4.2-2.569,7.175-5.823,8.582-9.394a12.236,12.236,0,0,0-1.765-11.148c-2.691-4.028-6.984-7.236-11.5-9.863a80.4,80.4,0,0,0-17.439-7.3c-13.418-4.006-27.527-6.092-41.271-9.166a121.072,121.072,0,0,1-19.808-5.751c-5.3-2.194-11.079-5.152-14.029-9.55-6.087-9.074,8.434-14.482,16.662-16.531a159.15,159.15,0,0,1,17.221-3.089c1.241-.167.714-1.719-.521-1.553a152.619,152.619,0,0,0-18.084,3.308c-4.962,1.292-10.081,2.989-13.979,5.91-3.589,2.667-5.2,6.164-4.437,9.619,1.032,4.354,5.52,7.709,9.734,10.138,5.573,3.213,11.927,5.312,18.37,7.022,6.785,1.8,13.715,3.206,20.642,4.583,13.842,2.752,28.3,5.2,40.8,11.06,8.741,4.1,20.615,11.777,17.707,21.3-1.291,4.226-5.21,7.53-9.44,9.96A66.763,66.763,0,0,1,304.3,278.5c-27.689,6.982-58.164,1.989-85.139,11.472-9.172,3.224-20.313,9.095-20.4,18.332-.047,4.8,3.023,9.2,6.818,12.677,4.545,4.166,10.432,7.247,16.42,9.822q9.459,3.918,19.608,7.113,11.069,3.643,22.142,7.276l44.8,14.72,22.259,7.314c6.794,2.232,13.762,4.373,19.939,7.65,5.058,2.683,11.033,7.085,10.517,12.55-.41,4.341-5.012,7.473-9.217,9.567a83.185,83.185,0,0,1-17.649,5.923c-7.02,1.681-14.156,3.076-21.305,4.33a443.309,443.309,0,0,1-44.7,5.482c-15.07,1.087-30.251,1.442-45.408,1.06q-11.488-.29-22.939-1.151c-7.87-.594-15.706-1.509-23.6-1.915a98.641,98.641,0,0,0-21.37.9c-5.868.985-12.068,2.742-16.523,6.169-3.283,2.616-4.927,5.894-4.623,9.217s2.188,6.5,5.415,9.133a28.184,28.184,0,0,0,13.1,5.51c1.23.208,1.756-1.343.521-1.553Z" transform="translate(-133.903 -146.021)" fill="#e6e6e6"/>
      <rect id="Rectangle_122" data-name="Rectangle 122" width="223.733" height="1.547" transform="translate(16.672 294.308)" fill="#3f3d56"/>
      <ellipse id="Ellipse_34" data-name="Ellipse 34" cx="14.616" cy="14.616" rx="14.616" ry="14.616" transform="translate(208.554 219.05)" fill="#e6e6e6"/>
      <ellipse id="Ellipse_35" data-name="Ellipse 35" cx="14.616" cy="14.616" rx="14.616" ry="14.616" transform="translate(56.915 134.598)" fill="#e6e6e6"/>
      <path id="Path_433" data-name="Path 433" d="M350.46,127.3l-40.583,17.643a7.384,7.384,0,0,0-3.823,9.7l12.6,28.988a7.384,7.384,0,0,0,9.7,3.824l40.583-17.643a7.384,7.384,0,0,0,3.824-9.7l-12.6-28.988a7.384,7.384,0,0,0-9.7-3.823Zm1.68,3.865a3.147,3.147,0,0,1,.759-.218l-13.721,25.887L311,149.122a3.163,3.163,0,0,1,.56-.314Zm15.122,34.786-40.583,17.643a3.165,3.165,0,0,1-4.159-1.639l-12.489-28.728,29.662,8.117a2.107,2.107,0,0,0,2.418-1.046l14.361-27.1L368.9,161.792a3.164,3.164,0,0,1-1.639,4.159Z" transform="translate(-187 -126.69)" fill="#e6e6e6"/>
    </g>
    <g id="Group_44" data-name="Group 44" transform="translate(122.829 306.353)">
      <path id="Path_410" data-name="Path 410" d="M515.572,262.272a.347.347,0,0,1-.2-.062l-96.263-67.04a1.746,1.746,0,0,0-1.994,0l-95.569,67.036a.348.348,0,1,1-.4-.57L416.717,194.6a2.444,2.444,0,0,1,2.792,0l96.263,67.04a.348.348,0,0,1-.2.634Z" transform="translate(-318.911 -194.163)" fill="#3f3d56"/>
      <path id="Path_411" data-name="Path 411" d="M23.264,75.909l91.2-67.59,91.891,72.4-87.192,51.689-47.338-10.79Z" transform="translate(-15.166 -5.423)" fill="#e6e6e6"/>
      <path id="Path_412" data-name="Path 412" d="M400.927,642.819H355.873a2.1,2.1,0,0,1,0-4.21h45.055a2.1,2.1,0,0,1,0,4.21Z" transform="translate(-340.274 -483.909)" fill="#8ec3df"/>
      <path id="Path_413" data-name="Path 413" d="M372.037,616.819H355.873a2.1,2.1,0,0,1,0-4.21h16.165a2.1,2.1,0,1,1,0,4.21Z" transform="translate(-340.274 -466.959)" fill="#8ec3df"/>
      <path id="Path_414" data-name="Path 414" d="M496.744,319.359a2.632,2.632,0,0,1-1-.2L439.5,295.825V222.774a2.439,2.439,0,0,1,2.436-2.437h107.9a2.439,2.439,0,0,1,2.436,2.437v73.1l-.106.045-54.4,23.23A2.65,2.65,0,0,1,496.744,319.359Z" transform="translate(-396.165 -211.227)" fill="#fff"/>
      <path id="Path_415" data-name="Path 415" d="M496.418,319.207a2.808,2.808,0,0,1-1.065-.208L439,295.615V222.448a2.613,2.613,0,0,1,2.611-2.611h107.9a2.614,2.614,0,0,1,2.611,2.611v73.217l-54.608,23.321A2.822,2.822,0,0,1,496.418,319.207ZM439.7,295.151l55.923,23.2a2.129,2.129,0,0,0,1.625-.01l54.184-23.139V222.448a1.917,1.917,0,0,0-1.914-1.914h-107.9a1.917,1.917,0,0,0-1.914,1.914Z" transform="translate(-395.839 -210.901)" fill="#3f3d56"/>
      <path id="Path_416" data-name="Path 416" d="M510.965,387.837h-.07L470.937,404.9l-54.672,23.345a1.764,1.764,0,0,1-1.351.007l-56.405-23.4-40.94-16.986-.063-.028h-.07A2.439,2.439,0,0,0,315,390.274V496.088a2.439,2.439,0,0,0,2.437,2.436H510.965a2.439,2.439,0,0,0,2.436-2.436V390.274A2.439,2.439,0,0,0,510.965,387.837Zm1.74,108.251a1.741,1.741,0,0,1-1.74,1.74H317.437a1.741,1.741,0,0,1-1.74-1.74V390.274a1.744,1.744,0,0,1,1.674-1.74L358.509,405.6,414.646,428.9a2.479,2.479,0,0,0,1.893-.01l54.4-23.23,40.1-17.122a1.746,1.746,0,0,1,1.671,1.74Z" transform="translate(-315 -320.424)" fill="#3f3d56"/>
      <path id="Path_417" data-name="Path 417" d="M543.671,313.846a9.572,9.572,0,0,1-5.759-1.913l-.1-.077L516.12,295.25a9.636,9.636,0,0,1,11.721-15.3l14.048,10.772,33.2-43.3a9.635,9.635,0,0,1,13.51-1.783l-.206.28.212-.276a9.647,9.647,0,0,1,1.783,13.51l-39.049,50.926A9.64,9.64,0,0,1,543.671,313.846Z" transform="translate(-443.654 -226.428)" fill="#8ec3df"/>
    </g>
  </g>
</svg>
