<svg xmlns="http://www.w3.org/2000/svg" width="144" height="144" viewBox="0 0 144 144">
  <g id="Group_63" data-name="Group 63" transform="translate(-142 -127)">
    <rect id="Rectangle_169" data-name="Rectangle 169" width="144" height="144" rx="11" transform="translate(142 127)" fill="#d4d4d4" opacity="0.449"/>
    <path id="Icon_awesome-file-image" data-name="Icon awesome-file-image" d="M48.275,15.33v.762H32.183V0h.762a3.017,3.017,0,0,1,2.133.884L47.391,13.2A3.017,3.017,0,0,1,48.275,15.33Zm-17.1,4.785A3.026,3.026,0,0,1,28.16,17.1V0H3.017A3.017,3.017,0,0,0,0,3.017V61.349a3.017,3.017,0,0,0,3.017,3.017H45.258a3.017,3.017,0,0,0,3.017-3.017V20.115ZM14.149,22.126A6.034,6.034,0,1,1,8.114,28.16,6.034,6.034,0,0,1,14.149,22.126ZM40.3,52.3H8.114l.061-6.1,4.968-4.968a1.437,1.437,0,0,1,2.072.061l4.968,4.968L33.2,33.25a1.509,1.509,0,0,1,2.134,0L40.3,38.218Z" transform="translate(189.863 164.633)" opacity="0.162"/>
  </g>
</svg>
